<svg xmlns="http://www.w3.org/2000/svg" xmlns:xlink="http://www.w3.org/1999/xlink" width="80" zoomAndPan="magnify" viewBox="0 0 60 60" height="80" preserveAspectRatio="xMidYMid meet" version="1.0"><defs><g/><clipPath id="b9f75e1c20"><path d="M 1.347656 1.347656 L 57.597656 1.347656 L 57.597656 57.597656 L 1.347656 57.597656 Z M 1.347656 1.347656 " clip-rule="nonzero"/></clipPath></defs><g clip-path="url(#b9f75e1c20)"><path fill="#545454" d="M 29.386719 57.421875 C 13.925781 57.421875 1.347656 44.84375 1.347656 29.386719 C 1.347656 13.925781 13.925781 1.347656 29.386719 1.347656 C 44.84375 1.347656 57.421875 13.925781 57.421875 29.386719 C 57.421875 44.84375 44.84375 57.421875 29.386719 57.421875 Z M 29.386719 1.84375 C 14.199219 1.84375 1.84375 14.199219 1.84375 29.386719 C 1.84375 44.570312 14.199219 56.925781 29.386719 56.925781 C 44.570312 56.925781 56.925781 44.570312 56.925781 29.386719 C 56.925781 14.199219 44.570312 1.84375 29.386719 1.84375 Z M 29.386719 1.84375 " fill-opacity="1" fill-rule="nonzero"/></g><g fill="#545454" fill-opacity="1"><g transform="translate(6.9492, 42.132817)"><g><path d="M 44.71875 -0.46875 L 45.46875 -0.46875 L 45.46875 0 L 31.3125 0 L 31.3125 -0.421875 L 32.015625 -0.421875 C 32.546875 -0.453125 33 -0.671875 33.375 -1.078125 C 33.757812 -1.492188 33.921875 -1.953125 33.859375 -2.453125 L 32.015625 -19.59375 L 23.140625 -4.296875 C 21.972656 -2.347656 21.375 -0.601562 21.34375 0.9375 L 20.875 0.9375 L 8.734375 -19.453125 L 6.890625 -2.453125 C 6.828125 -1.953125 6.984375 -1.488281 7.359375 -1.0625 C 7.742188 -0.632812 8.203125 -0.421875 8.734375 -0.421875 L 9.4375 -0.421875 L 9.4375 0 L -0.421875 0 L -0.421875 -0.46875 L 0.328125 -0.46875 C 1.210938 -0.46875 1.976562 -0.734375 2.625 -1.265625 C 3.269531 -1.804688 3.65625 -2.535156 3.78125 -3.453125 L 7.703125 -33.71875 L 8.125 -33.71875 L 22.765625 -9.625 L 36.828125 -33.71875 L 37.25 -33.71875 L 41.265625 -3.453125 C 41.421875 -2.535156 41.820312 -1.804688 42.46875 -1.265625 C 43.113281 -0.734375 43.863281 -0.46875 44.71875 -0.46875 Z M 44.71875 -0.46875 "/></g></g></g></svg>